<svg id="Layer_1" data-name="Layer 1" xmlns="http://www.w3.org/2000/svg" viewBox="0 0 929.186 519.605">
  <path d="M141.722,519.605c-30.865,0-58.6-23.806-58.608-54.671-.06-183.667,173.911-220.744,207.494-281.8C348.252,78.323,403.708,0,486.09,0,620.6,0,613.558,144.708,681.96,219.718c91.247,100.063,157.106,135.07,157.106,245.222,0,30.862-27.746,54.665-58.607,54.665Z" fill="#f3f5fd"></path>
  <path d="M405.466,393.439c-18.177-4.592-19.966-5.277-20.553-5.5l7.507-19.611c-.059-.024-.135-.053-.229-.084,1.477.487,10.711,2.889,18.418,4.835Z" fill="#EDA59F"></path>
  <path d="M404.649,420.867a4.107,4.107,0,0,1-5.494,2.456h0a4.107,4.107,0,0,1-2.5-3.643l.014-25.777a3.46,3.46,0,0,1,1.217-2.621,19.11,19.11,0,0,0,6.872-9.79,17.028,17.028,0,0,0-.249-9.388,1.547,1.547,0,0,1,1.943-2.014l11.331,3.8a2.679,2.679,0,0,1,1.684,3.4Z" fill="#c1d8ed"></path>
  <path d="M355.706,510.871s-.071-21.747-.071-23.672h21c0,1.92.071,23.6.071,23.6Z" fill="#EDA59F"></path>
  <path d="M410.729,209.748c-13.474-13.474-76.077,4.7-76.077,4.7l-.057.391-1.283-.72c-15.922,32.007-38.468,79.9-54.071,112.527a18.537,18.537,0,0,0,8.8,25.618l68.151,30.321c-3.5,38.439-7.518,76.846-10.863,115.225l36.714,4.582c6.673-45.786,13.534-91.519,19.66-137.362l1-2.248-.659-.293c3.757-28.243,8.079-56.453,10.194-84.9C414.035,253.391,417.978,217,410.729,209.748Zm-88.565,117.2c13.139-21.9,28.594-47.709,41.977-69.614-.687,28.763-2.392,57.506-4.632,86.23Z" fill="#55affc"></path>
  <path d="M330.2,519.418a4.108,4.108,0,0,1-4.076-4.427h0a4.106,4.106,0,0,1,2.658-3.529l24.443-8.187a3.461,3.461,0,0,1,2.872.319,19.1,19.1,0,0,0,11.468,3.4,17.038,17.038,0,0,0,8.821-3.222,1.546,1.546,0,0,1,2.527,1.2v11.952a2.678,2.678,0,0,1-2.689,2.678Z" fill="#c1d8ed"></path>
  <g>
    <rect x="409.424" y="197.072" width="200.503" height="23.721" rx="3.032" fill="#dee8f5"></rect>
    <rect x="409.424" y="495.883" width="200.503" height="23.721" rx="3.032" fill="#dee8f5"></rect>
    <path d="M595.345,468.144a114.71,114.71,0,0,1-3.372,27.741H427.378a114.661,114.661,0,0,1-3.372-27.741c0-43.808,24.356-81.008,58.193-94.312,5.732-2.254,9.613-8.462,9.613-15.492v0c0-7.031-3.881-13.239-9.613-15.493-33.837-13.3-58.193-50.5-58.193-94.312a114.667,114.667,0,0,1,3.372-27.741H591.973a114.716,114.716,0,0,1,3.372,27.741c0,43.812-24.355,81.012-58.193,94.313-5.731,2.253-9.614,8.462-9.614,15.493h0c0,7.03,3.883,13.239,9.614,15.492C570.99,387.133,595.345,424.332,595.345,468.144Z" fill="#c1d8ed"></path>
    <path d="M571.565,495.885H447.785L499.9,435.33c5.4-6.275,14.155-6.275,19.555,0Z" fill="#fff"></path>
    <path d="M578.818,261.977c-3.991,32.816-24.875,59.322-52.1,67.254-7.88,2.3-13.462,10.428-13.462,19.868v95.854H506.1V349.1c0-9.441-5.581-17.572-13.462-19.868-27.228-7.933-48.109-34.439-52.1-67.255Z" fill="#fff"></path>
  </g>
  <path d="M329.788,217.789c4.189,9.63,86.519,13.63,87.619-3.31.7-10.78-8.8-20.19-8.8-41.2s19.33-47.84,3.58-63.59c-4.571-4.57-12.461-7.52-22.08-7.53-.721,5.61-34.781,5.63-35.04.13-1.3.02-2.31.04-2.94.07-33.181,1.43-18.6,39.19-18.281,66.93C334.237,201.749,325.467,207.869,329.788,217.789Z" fill="#2f3235"></path>
  <path d="M355.068,102.289c.259,5.5,3.25,13.59,12.48,14.2,12.3.81,21.839-8.72,22.56-14.33h-.031C377.967,102.159,362.128,102.179,355.068,102.289Z" fill="#EDA59F"></path>
  <path d="M396.713,208.529V197.083s-20.743-1.414-15.44,28.174c1.214,6.773,4.336,8.123,5.663,6.522,3.455-4.169,1.165-10.866,2.108-10.866C392.713,220.913,391.41,213.832,396.713,208.529Z" fill="#EDA59F"></path>
  <path d="M399.055,212.074l-8.527-20.069,31.178-13.248-24.474-52.633L417,116.931l29.227,62.855a10.9,10.9,0,0,1-5.622,14.63Z" fill="#2f3235"></path>
  <path d="M350.758,166.191s12.426-2.572,15.178.18,3.066,14.25-2.054,13.565c-1.245-.166-1.859-2.837-4.1-2.028-3.747,1.35-9.611-.7-9.611-.7" fill="#EDA59F"></path>
  <path d="M350.758,185.3H302.579a10.9,10.9,0,0,1-8.917-17.175l40.616-57.736,17.834,12.545L323.578,163.5h27.18Z" fill="#2f3235"></path>
  <rect x="346.274" y="164.11" width="8.968" height="2.261" rx="1.13" fill="#55affc"></rect>
  <rect x="349.274" y="165.241" width="2.968" height="13.652" fill="#55affc"></rect>
  <g>
    <path d="M820.565,322.63c-6.752,20.458-30.06,38.637-23.1,53.683,2.649,5.718,5.307,11.7,6.531,17.81a31.073,31.073,0,0,1,.39,11.089c-2.511,15.932-17.419,26.514-31.283,34.754-.855.507-1.72,1.024-2.585,1.541-13.136,7.871-26.894,16.934-31.114,31.463-2.343,8.071-1.309,16.7-2.279,25.047a52.374,52.374,0,0,1-7.629,21.588H640.968c-7.861-8.663-7.207-23.223-1.224-33.436,6.4-10.931,17.219-18.359,26.978-26.441,8.431-6.984,16.65-15.394,19.868-25.649a31.252,31.252,0,0,0,1.129-4.97c.781-5.549.359-33.9,9.981-51.351,14.877-26.947,39.007-20.31,46.381-35.514,2.828-5.824,5.266-77.391,52.27-64.17A34.954,34.954,0,0,1,820.565,322.63Z" fill="#dee8f5"></path>
    <path d="M906.544,434.533a21.543,21.543,0,0,1-4.325,2.3c-12.683,4.758-47.954,4.231-53.114,16.755-2.427,5.887-3.007,12.386-5.085,18.411-4.717,13.663-17.167,23.908-31.094,27.759-5.012,1.382-10.2,2.026-15.161,3.566-9.581,2.986-17.515,8.99-24.489,16.281H658.936a45.03,45.03,0,0,1,20.638-38.153c12.713-8.018,28.772-9.516,41.254-17.894,8.229-5.528,14.148-13.516,18.843-22.347a163.068,163.068,0,0,0,7.9-17.82c3.492-9.063,7.143-18.791,15.077-24.4,3.777-2.67,8.251-4.168,12.735-5.339,11.458-3,20.269-1.234,28.614.475,10.129,2.068,19.582,4.041,32.275-2.7,22.516-11.965,55.435-71.63,88.332-14.94C937.8,399.219,919.6,425.8,906.544,434.533Z" fill="#8ddbe0"></path>
  </g>
  <g>
    <path d="M108.621,322.63c6.752,20.458,30.06,38.637,23.1,53.683-2.649,5.718-5.308,11.7-6.531,17.81a31.1,31.1,0,0,0-.391,11.089c2.511,15.932,17.42,26.514,31.284,34.754.854.507,1.719,1.024,2.585,1.541,13.135,7.871,26.894,16.934,31.114,31.463,2.343,8.071,1.309,16.7,2.279,25.047a52.374,52.374,0,0,0,7.629,21.588h88.532c7.86-8.663,7.207-23.223,1.224-33.436-6.4-10.931-17.219-18.359-26.979-26.441-8.43-6.984-16.649-15.394-19.867-25.649a31.252,31.252,0,0,1-1.129-4.97c-.781-5.549-.359-33.9-9.981-51.351-14.877-26.947-39.007-20.31-46.382-35.514-2.827-5.824-5.265-77.391-52.269-64.17A34.954,34.954,0,0,0,108.621,322.63Z" fill="#dee8f5"></path>
    <path d="M22.642,434.533a21.516,21.516,0,0,0,4.325,2.3c12.682,4.758,47.954,4.231,53.114,16.755,2.426,5.887,3.007,12.386,5.085,18.411,4.717,13.663,17.167,23.908,31.094,27.759,5.012,1.382,10.2,2.026,15.161,3.566,9.58,2.986,17.515,8.99,24.489,16.281H270.25a45.03,45.03,0,0,0-20.638-38.153c-12.713-8.018-28.772-9.516-41.254-17.894-8.229-5.528-14.148-13.516-18.844-22.347a163.252,163.252,0,0,1-7.9-17.82c-3.492-9.063-7.143-18.791-15.077-24.4-3.778-2.67-8.251-4.168-12.735-5.339-11.459-3-20.269-1.234-28.614.475-10.129,2.068-19.583,4.041-32.276-2.7-22.515-11.965-55.434-71.63-88.331-14.94C-8.61,399.219,9.59,425.8,22.642,434.533Z" fill="#8ddbe0"></path>
  </g>
  <g>
    <path d="M387.338,107.714s-7.732-4.1-6.006-25.156L365.356,79.6s1.8,18.879-6.288,24.873Z" fill="#EDA59F"></path>
    <g opacity="0.15">
      <path d="M362.342,100.521l13.272-10.154-10.424-.108A28.735,28.735,0,0,1,362.342,100.521Z"></path>
    </g>
    <path d="M390.4,74.393c-1.106,6.388-4.592,12.438-10.227,14.5-6.69,2.45-11.645,2.616-19.358,2.616-10.525,0-10.177-10.977-10.473-22.038-.3-11.106.587-23.019,4.747-26.889,8.3-7.724,32.673-2.832,35.637,10.088C392.256,59.353,391.45,68.312,390.4,74.393Z" fill="#EDA59F"></path>
    <path d="M344.7,49s-4.31-.963-3.13-5.261c.782-2.851,4.434-2.218,4.434-2.218s-3.458-.633-3.458-3.652c0-1.9,1.462-5.124,5.871-3.282,5.174,2.161,11.074,1.883,15.561,1.129a51.715,51.715,0,0,1,7.707-1.088l.014,0v0a29.667,29.667,0,0,1,8.814,1.179c8.02,2.4,20.157,9.59,17.577,25.893-2.88,18.194-11.418,25.152-15.174,27.384a1.712,1.712,0,0,1-2.518-.957c-1.065-3.41-2.9-11.99-2.387-29.682-24.652-1.209-31.745-1.576-31.745-1.576s-5.8.218-5.8-4.022S344.7,49,344.7,49Z" fill="#0f1011"></path>
    <g>
      <circle cx="365.379" cy="68.023" r="1.449" fill="#0f1011"></circle>
      <circle cx="353.947" cy="67.086" r="1.449" fill="#0f1011"></circle>
      <path d="M351.436,64a.681.681,0,0,1-.009-1.361l3.839-.048h.009a.681.681,0,0,1,.009,1.362L351.445,64Z" fill="#0f1011"></path>
      <path d="M368.506,65.4a.685.685,0,0,1-.16-.019l-3.784-.91a.681.681,0,1,1,.318-1.324l3.785.91a.681.681,0,0,1-.159,1.343Z" fill="#0f1011"></path>
    </g>
    <path d="M372.916,71.569a6.143,6.143,0,0,0,12.245,1,6.042,6.042,0,0,0-5.621-6.625C375.162,65.806,373.193,68.187,372.916,71.569Z" fill="#EDA59F"></path>
    <g opacity="0.15">
      <path d="M358.947,76.06a.5.5,0,0,0,.146-.978l-2.947-.9,2.062-4.59a.5.5,0,0,0-.912-.41L355,74.284a.5.5,0,0,0,.309.683l3.489,1.071A.5.5,0,0,0,358.947,76.06Z"></path>
    </g>
    <path d="M364.708,79.435s-5.349.564-9.1-.746c0,0,.029,3.522,4.262,3.869S364.708,79.435,364.708,79.435Z" fill="#fff"></path>
  </g>
</svg>