<svg id="Layer_1" data-name="Layer 1" xmlns="http://www.w3.org/2000/svg" viewBox="0 0 739.696 642.533">
  <path d="M687.58,642.533a52.125,52.125,0,0,0,52.064-54.44C737.93,549.3,718.1,494.525,639.938,439.784c-95.316-66.754-54.489-273.2-257.009-259.94S253.243,349.393,129.063,414.494c-79.047,41.44-93.419,122.523-93.424,175.989a52.09,52.09,0,0,0,52.113,52.05Z" fill="#f3f5fd"></path>
  <g>
    <rect x="236.9" width="359.163" height="465.922" fill="#dee8f5"></rect>
    <g>
      <rect x="326.903" y="39.003" width="236.056" height="11.093" fill="#fff"></rect>
      <rect x="326.903" y="66.361" width="236.056" height="11.093" fill="#fff"></rect>
      <rect x="270.382" y="39.003" width="38.451" height="38.451" fill="#fff"></rect>
    </g>
    <g>
      <rect x="326.903" y="111.684" width="236.056" height="11.093" fill="#fff"></rect>
      <rect x="326.903" y="139.042" width="236.056" height="11.093" fill="#fff"></rect>
      <rect x="270.382" y="111.684" width="38.451" height="38.451" fill="#fff"></rect>
    </g>
    <g>
      <rect x="298.893" y="183.366" width="235.176" height="2.482" fill="#c1d8ed"></rect>
      <rect x="298.893" y="245.202" width="235.176" height="2.482" fill="#c1d8ed"></rect>
      <text transform="translate(347.55 226.486)" font-size="32.231" fill="#fff" font-family="OpenSans-Bold, Open Sans" font-weight="700">THE END</text>
    </g>
  </g>
  <g>
    <g>
      <path d="M116.674,230.688s7.732-4.1,6.006-25.156l15.976-2.963s-1.8,18.879,6.287,24.873Z" fill="#EDA59F"></path>
      <g opacity="0.15">
        <path d="M141.67,223.5,128.4,213.341l10.425-.108A28.741,28.741,0,0,0,141.67,223.5Z"></path>
      </g>
      <path d="M113.615,197.367c2.034,15.023,16.527,18.238,29.585,17.117,6.951-.57,11.937-7.086,11.937-15.457,0-12.027-1.207-28.815-6.211-33.47-8.3-7.724-32.673-2.832-35.637,10.088C111.756,182.327,112.562,191.286,113.615,197.367Z" fill="#EDA59F"></path>
      <path d="M161.16,161.866c.01-5.3-6.615-13.929-24.129-1.991-9.605.176-15.176.687-22.243,5.959h0c-15.531,10.606-2.034,43.877,7.309,46.228.956.569,1.187.106,1.52-.957a81.268,81.268,0,0,0,2.229-11.969c.571-4.2,3.792-6.416,3.792-11.9,0-1.765-1.7-8.27,5.868-8.27C154.682,178.962,163.3,177.284,161.16,161.866Z" fill="#0f1011"></path>
      <path d="M131.1,194.543c.767,7.933-11.71,8.956-12.245,1C117.933,187.353,131.288,186.772,131.1,194.543Z" fill="#EDA59F"></path>
      <path d="M128.4,175.057l-4.523,1.656c1.38,3.792-1.055,38.83,11.69,39.318,17.106,2.118,20.174-3.048,19.534-16.55C128.9,202.452,130.859,198.7,128.4,175.057Z" fill="#0f1011"></path>
      <g>
        <path d="M140.077,190.878a1.449,1.449,0,0,1-2.887.237A1.449,1.449,0,0,1,140.077,190.878Z" fill="#0f1011"></path>
        <path d="M151.509,189.941a1.449,1.449,0,0,1-2.888.237A1.449,1.449,0,0,1,151.509,189.941Z" fill="#0f1011"></path>
        <path d="M152.576,186.971a.681.681,0,0,0,.008-1.361c-.621.217-4.6-.663-4.528.624C147.922,187.527,151.97,186.738,152.576,186.971Z" fill="#0f1011"></path>
        <path d="M135.506,188.371c.217.009,3.742-.9,3.945-.929a.682.682,0,0,0-.319-1.325C138.522,186.389,132.752,187.03,135.506,188.371Z" fill="#0f1011"></path>
      </g>
      <g opacity="0.15">
        <path d="M145.066,199.034c-2.057-.927,2.4-1.631,2.8-1.883L145.8,192.56c.38-3.118,2.956,4.556,3.206,4.7C149.475,198.273,145.514,198.727,145.066,199.034Z"></path>
      </g>
    </g>
    <g>
      <g>
        <path d="M223.287,631.714l-20.854-2.48c.939-7.893,2-17.374,2.072-18.928,0,.1,0,.181,0,.245h21C225.5,611.18,225.5,613.1,223.287,631.714Z" fill="#EDA59F"></path>
        <path d="M248.873,642.347a4.11,4.11,0,0,0,4.077-4.428h0a4.11,4.11,0,0,0-2.659-3.529L225.848,626.2a3.457,3.457,0,0,0-2.872.319,19.112,19.112,0,0,1-11.468,3.4,17.035,17.035,0,0,1-8.82-3.222,1.547,1.547,0,0,0-2.528,1.2v11.952a2.678,2.678,0,0,0,2.689,2.678Z" fill="#c1d8ed"></path>
        <path d="M129.611,634.225l-21-.069s.07-21.685.07-23.6h21C129.681,612.477,129.611,634.225,129.611,634.225Z" fill="#EDA59F"></path>
        <path d="M194.532,629.02l36.009-8.5c-23.315-91.528-42.879-184.953-61.828-277.469l-.267.079-.782-5.33-76.076-4.7s-2.962,37.257-2.96,49.706c.007,61.005,9.709,162.429,14.529,243.588l36.952-1.892c-2.174-78.7-8.047-157.514-7.625-236.236C154.611,467.906,176.678,548.4,194.532,629.02Z" fill="#55affc"></path>
        <path d="M155.14,642.347a4.108,4.108,0,0,0,4.076-4.428h0a4.107,4.107,0,0,0-2.659-3.529L132.115,626.2a3.456,3.456,0,0,0-2.872.319,19.114,19.114,0,0,1-11.468,3.4,17.035,17.035,0,0,1-8.821-3.222,1.546,1.546,0,0,0-2.527,1.2v11.952a2.678,2.678,0,0,0,2.689,2.678Z" fill="#c1d8ed"></path>
      </g>
      <g>
        <path d="M222.026,240.981s1.6-11.9,10.046-10.248c5.329,1.045,31.02,2.964,31.117,5.339.241,5.875-23.3,4.438-26.071,9.545Z" fill="#EDA59F"></path>
        <path d="M229.008,230.748s12.332-2.424,15.163-1.377c2.506.928-3.384,4.475-3.384,4.475Z" fill="#EDA59F"></path>
      </g>
      <g>
        <path d="M41.165,240.981s-1.6-11.9-10.046-10.248C25.79,231.778.1,233.7,0,236.072c-.241,5.875,23.3,4.438,26.071,9.545Z" fill="#EDA59F"></path>
        <path d="M34.183,230.748s-12.332-2.424-15.163-1.377c-2.506.928,3.384,4.475,3.384,4.475Z" fill="#EDA59F"></path>
      </g>
      <path d="M148.637,225.644c-.26,5.5-3.25,13.589-12.48,14.2-12.3.81-21.84-8.72-22.56-14.33h.03C125.737,225.514,141.577,225.534,148.637,225.644Z" fill="#EDA59F"></path>
    </g>
    <path d="M148.167,204.469s-3.425-5.56-8.242,0a25.511,25.511,0,0,1,4.121-.549A20.318,20.318,0,0,1,148.167,204.469Z" fill="#fff"></path>
    <g>
      <path d="M174.027,341.314c-4.189,9.63-84.32,13.63-85.42-3.31-.7-10.78,8.106-20.849,8.106-41.859s-15.765-42.111-.015-57.861c4.57-4.57,7.39-12.59,17.01-12.6.72,5.61,34.78,5.63,35.04.13,1.3.02,2.31.04,2.94.07,33.18,1.43,16.087,39.278,15.767,67.018C167.065,325.362,178.348,331.394,174.027,341.314Z" fill="#fff"></path>
      <path d="M148.763,225.9c-.26,5.5-3.25,13.59-12.48,14.2-12.3.81-21.84-8.72-22.56-14.33h.03C125.863,225.772,141.7,225.792,148.763,225.9Z" fill="#EDA59F"></path>
      <path d="M221.988,233.979l-29.06,43.69-21.7-41.686,0,0c-2.607-6.006-7.737-9.906-17.11-10.316-.545-.024-8.726-.388-9.058-.056-2.01,2.01-.561,37.612.439,57.292,1.093,21.3-.03,47.9.985,63.193a7.268,7.268,0,0,0,8.333,6.712c10.782-1.647,19.189-4.456,20.415-7.273,4.32-9.92-5.649-20.262-5.259-52.722.04-3.423.292-7,.646-10.653l11.658,21.879a10.9,10.9,0,0,0,9.091,5.762c.178.009.355.014.531.014a10.9,10.9,0,0,0,9.076-4.865l39.172-58.894Z" fill="#2f3235"></path>
      <path d="M118.347,232.873c-1.5-7.927-.7-7.365-4.462-7.368q-.916,0-1.812.039c-8.927.3-16.858,2.626-20.556,7.5-7.758,10.223-27.154,45.619-27.154,45.619L39.374,232.873l-19.14,10.445L54.5,306.1a10.9,10.9,0,0,0,9.425,5.678h.145a10.9,10.9,0,0,0,9.427-5.427l17.656-30.4.038-.085c2.121,7.205,4.018,14.357,4.018,20.935,0,21.01-9.5,30.42-8.8,41.2.432,6.733,3.873,15.251,29.825,17.076a8.218,8.218,0,0,0,8.734-7.2C129.942,306.524,120.89,251.448,118.347,232.873Z" fill="#2f3235"></path>
      <g>
        <g>
          <path d="M109.739,249.179l2.48-8.13-4.78-3.13,3.862-12.347c3.557-.186,6.248-.173,7.279-.133,2.359,7.89,4.943,42.77,5.862,56Z" fill="#2f3235"></path>
          <path d="M151.14,241.049l4.7,7.13-10.447,32.784s-3.343-44.373-.513-55.4c0,0,1.346-.149,2.984-.172a41.257,41.257,0,0,1,4.145.184l3.911,12.347Z" fill="#2f3235"></path>
        </g>
        <g>
          <g opacity="0.24">
            <path d="M109.739,249.179l2.48-8.13-4.78-3.13,3.862-12.347c3.557-.186,6.248-.173,7.279-.133,2.359,7.89,4.943,42.77,5.862,56Z" fill="#fff"></path>
          </g>
          <g opacity="0.24">
            <path d="M151.14,241.049l4.7,7.13-10.447,32.784s-3.343-44.373-.513-55.4c0,0,1.346-.149,2.984-.172a41.257,41.257,0,0,1,4.145.184l3.911,12.347Z" fill="#fff"></path>
          </g>
        </g>
      </g>
    </g>
  </g>
  <g>
    <g>
      <g>
        <path d="M614.347,526.529,590.99,640.451a2.751,2.751,0,0,1-2.669,2.082h0a2.753,2.753,0,0,1-2.67-3.422l23.69-115.239Z" fill="#c1d8ed"></path>
        <path d="M669.224,526.347,692.581,640.27a2.754,2.754,0,0,0,2.67,2.081h0a2.752,2.752,0,0,0,2.669-3.422L674.23,523.691Z" fill="#c1d8ed"></path>
      </g>
      <rect x="585.038" y="515.387" width="113.496" height="19.999" rx="4.76" fill="#dee8f5"></rect>
    </g>
    <g>
      <path d="M665.643,459.389c-3.306-1.083-6.7.132-9.944,2.6,4.275-10.8,6.04-20.548-1.27-20.987-5.114-.308-9.032,3.616-12.008,9.195-1.047-9.809-3.748-17.123-9.8-14.7-6.642,2.662-7.652,11.787-6.645,21.335-2.926-4.877-6.076-7.6-8.937-4.736-8.537,8.537,12.418,32.6,12.418,32.6h5.2l2.97,3.224c-.6,1.271-.931,2.028-.931,2.028l3.773,7.677S679.362,463.879,665.643,459.389Z" fill="#8ddbe0"></path>
      <polygon points="656.312 514.816 626.859 514.816 621.929 480.433 661.242 480.433 656.312 514.816" fill="#c1d8ed"></polygon>
    </g>
  </g>
</svg>